<svg width="40" height="40" viewBox="0 0 40 40" fill="none" xmlns="http://www.w3.org/2000/svg">
<g clip-path="url(#clip0_7054_11592)">
<rect width="40" height="40" rx="20" fill="white"/>
<g clip-path="url(#clip1_7054_11592)">
<path d="M20 40C31.0457 40 40 31.0457 40 20C40 8.95431 31.0457 0 20 0C8.95431 0 0 8.95431 0 20C0 31.0457 8.95431 40 20 40Z" fill="#9391F7"/>
<path d="M16.2716 20.9705C17.9866 20.6921 19.1511 19.0761 18.8729 17.3611C18.5944 15.6461 16.9784 14.4815 15.2635 14.7599C13.5484 15.0383 12.3838 16.6542 12.6622 18.3693C12.9406 20.0842 14.5566 21.2488 16.2716 20.9705Z" fill="white"/>
<path d="M24.51 20.9705C26.2249 20.6921 27.3895 19.0761 27.1111 17.3611C26.8328 15.6461 25.2167 14.4815 23.5018 14.7599C21.7868 15.0383 20.6221 16.6542 20.9005 18.3693C21.1789 20.0842 22.7948 21.2488 24.51 20.9705Z" fill="white"/>
<path d="M19.8831 4.875C11.3411 4.875 4.41573 11.9323 4.41797 20.6352H8.36884C8.36884 14.1131 13.4831 8.82513 19.8831 8.82513C26.2831 8.82513 31.3974 14.1131 31.3974 20.6352H35.3483C35.3497 11.9323 28.4243 4.875 19.8831 4.875Z" fill="white"/>
</g>
<rect x="0.5" y="0.5" width="39" height="39" rx="19.5" stroke="#DDDDDD"/>
</g>
<defs>
<clipPath id="clip0_7054_11592">
<rect width="40" height="40" rx="20" fill="white"/>
</clipPath>
<clipPath id="clip1_7054_11592">
<rect width="40" height="40" rx="20" fill="white"/>
</clipPath>
</defs>
</svg>
