<svg width="18" height="18" viewBox="0 0 18 18" fill="none" xmlns="http://www.w3.org/2000/svg">
<g clip-path="url(#clip0_7799_10449)">
<path d="M9 19C14.5228 19 19 14.5228 19 9C19 3.47715 14.5228 -1 9 -1C3.47715 -1 -1 3.47715 -1 9C-1 14.5228 3.47715 19 9 19Z" fill="#9391F7"/>
<path d="M7.14167 9.48527C7.99915 9.34606 8.58143 8.53803 8.4423 7.68055C8.30308 6.82305 7.49505 6.24074 6.63759 6.37993C5.78008 6.51913 5.19778 7.32708 5.33696 8.18464C5.47616 9.04212 6.28414 9.62441 7.14167 9.48527Z" fill="#D0D6E0"/>
<path d="M11.2511 9.48527C12.1085 9.34606 12.6908 8.53803 12.5516 7.68055C12.4125 6.82305 11.6045 6.24074 10.747 6.37993C9.88949 6.51913 9.30713 7.32708 9.44634 8.18464C9.58556 9.04212 10.3935 9.62441 11.2511 9.48527Z" fill="#D0D6E0"/>
<path d="M8.94349 1.44531C4.67251 1.44531 1.20982 4.97397 1.21094 9.32542H3.18637C3.18637 6.06435 5.74352 3.42038 8.94349 3.42038C12.1435 3.42038 14.7007 6.06435 14.7007 9.32542H16.6761C16.6768 4.97397 13.2141 1.44531 8.94349 1.44531Z" fill="#D0D6E0"/>
</g>
<defs>
<clipPath id="clip0_7799_10449">
<rect width="20" height="20" fill="white" transform="translate(-1 -1)"/>
</clipPath>
</defs>
</svg>
