<svg width="40" height="40" viewBox="0 0 40 40" fill="none" xmlns="http://www.w3.org/2000/svg">
<rect width="40" height="40" rx="20" fill="#A581FA"/>
<g clip-path="url(#clip0_7054_11894)">
<path fill-rule="evenodd" clip-rule="evenodd" d="M25.2924 11.6641C25.9432 11.6641 26.5899 12.0557 26.8132 12.7516L26.8765 12.9566L26.9424 13.1899L27.009 13.4532L27.0732 13.7416L27.134 14.0549L27.1624 14.2199L27.2132 14.5674C27.4049 16.0591 27.344 18.0924 26.2782 20.1549L26.1457 20.4024C25.0274 22.4149 25.1082 24.4407 25.3607 25.7566L25.4224 26.0474L25.454 26.1824L25.5182 26.4324L25.5824 26.6507C25.8107 27.3924 25.3174 28.2524 24.4765 28.3257L24.3599 28.3307H14.709C14.059 28.3307 13.4115 27.9391 13.1882 27.2432L13.1257 27.0382L13.059 26.8049L12.9924 26.5416L12.9282 26.2532L12.8674 25.9399C12.8474 25.8316 12.829 25.7199 12.8124 25.6041L12.7665 25.2457L12.7315 24.8674C12.6257 23.4474 12.7857 21.6549 13.7232 19.8399L13.8557 19.5924C14.974 17.5807 14.8924 15.5541 14.6407 14.2391L14.5799 13.9482L14.5474 13.8132L14.4832 13.5632L14.419 13.3449C14.1907 12.6032 14.684 11.7432 15.5249 11.6699L15.6424 11.6641H25.2924ZM20.0007 19.9974H17.5007C17.2797 19.9974 17.0677 20.0852 16.9115 20.2415C16.7552 20.3978 16.6674 20.6097 16.6674 20.8307C16.6674 21.0517 16.7552 21.2637 16.9115 21.42C17.0677 21.5763 17.2797 21.6641 17.5007 21.6641H20.0007C20.2217 21.6641 20.4337 21.5763 20.59 21.42C20.7462 21.2637 20.834 21.0517 20.834 20.8307C20.834 20.6097 20.7462 20.3978 20.59 20.2415C20.4337 20.0852 20.2217 19.9974 20.0007 19.9974ZM23.334 16.6641H18.334C18.1216 16.6643 17.9173 16.7456 17.7629 16.8914C17.6085 17.0372 17.5155 17.2365 17.5031 17.4486C17.4906 17.6606 17.5596 17.8694 17.6959 18.0323C17.8323 18.1951 18.0256 18.2998 18.2365 18.3249L18.334 18.3307H23.334C23.5464 18.3305 23.7507 18.2492 23.9052 18.1034C24.0596 17.9575 24.1526 17.7583 24.165 17.5462C24.1775 17.3342 24.1085 17.1254 23.9722 16.9625C23.8358 16.7997 23.6425 16.695 23.4315 16.6699L23.334 16.6641Z" fill="#F9F9F9"/>
</g>
<defs>
<clipPath id="clip0_7054_11894">
<rect width="20" height="20" fill="white" transform="translate(10 10)"/>
</clipPath>
</defs>
</svg>
