<svg width="40" height="40" viewBox="0 0 40 40" fill="none" xmlns="http://www.w3.org/2000/svg">
<rect width="40" height="40" rx="20" fill="#151515"/>
<g clip-path="url(#clip0_7054_11893)">
<path d="M19.9993 11.6641C18.4522 11.6641 16.9684 12.2786 15.8745 13.3726C14.7805 14.4666 14.1659 15.9503 14.1659 17.4974V20.4374C14.166 20.5667 14.1361 20.6942 14.0784 20.8099L12.6476 23.6707C12.5777 23.8105 12.5447 23.9658 12.5517 24.1219C12.5587 24.278 12.6055 24.4298 12.6877 24.5627C12.7699 24.6956 12.8846 24.8053 13.0211 24.8814C13.1576 24.9575 13.3113 24.9974 13.4676 24.9974H26.5309C26.6872 24.9974 26.8409 24.9575 26.9774 24.8814C27.1139 24.8053 27.2286 24.6956 27.3108 24.5627C27.393 24.4298 27.4398 24.278 27.4468 24.1219C27.4538 23.9658 27.4208 23.8105 27.3509 23.6707L25.9209 20.8099C25.863 20.6943 25.8327 20.5667 25.8326 20.4374V17.4974C25.8326 15.9503 25.218 14.4666 24.124 13.3726C23.0301 12.2786 21.5463 11.6641 19.9993 11.6641ZM19.9993 27.4974C19.4821 27.4975 18.9776 27.3373 18.5552 27.0389C18.1329 26.7404 17.8134 26.3183 17.6409 25.8307H22.3576C22.1851 26.3183 21.8656 26.7404 21.4433 27.0389C21.0209 27.3373 20.5164 27.4975 19.9993 27.4974Z" fill="#F9F9F9"/>
</g>
<defs>
<clipPath id="clip0_7054_11893">
<rect width="20" height="20" fill="white" transform="translate(10 10)"/>
</clipPath>
</defs>
</svg>
