<svg width="40" height="40" viewBox="0 0 40 40" fill="none" xmlns="http://www.w3.org/2000/svg">
<rect width="40" height="40" rx="20" fill="#CCFF00"/>
<path d="M21.3993 15.0625H17.7414C17.6091 15.0625 17.4972 15.1154 17.4045 15.231L14.7814 18.4801C14.3964 18.9614 14.3002 19.4067 14.3002 20.0445V23.3658C13.4458 25.7605 12.9044 27.385 12.5073 28.8531C12.4833 28.947 12.5194 28.9976 12.6036 28.9976H13.0006C13.0728 28.9976 13.145 28.9614 13.1691 28.9013C16.1652 21.2719 19.426 17.4933 21.4715 15.231C21.5557 15.1347 21.5196 15.0625 21.3993 15.0625Z" fill="#0B0B0B"/>
<path d="M21.5012 11.3162C21.2557 11.4112 21.0199 11.5725 20.9116 11.6651C19.8287 12.5917 19.1068 13.3258 18.4209 14.0478C18.3367 14.1321 18.3728 14.2163 18.4931 14.2163H22.548C22.921 14.2163 23.1376 14.4329 23.1376 14.8059V19.3788C23.1376 19.4991 23.2339 19.5352 23.3061 19.4269L25.7487 16.238C26.1457 15.7205 26.266 15.5641 26.3743 14.842C26.5187 13.7831 26.4345 12.1585 25.7968 11.4846C25.2313 10.883 22.6804 10.8589 21.5012 11.3162Z" fill="#0B0B0B"/>
<path d="M22.1212 15.9731C19.6065 18.7769 17.6452 21.7252 15.8283 25.2752C15.7826 25.3642 15.8403 25.4436 15.9486 25.4075L19.7027 24.2523C20.1263 24.1223 20.3645 23.9514 20.5691 23.6145L22.2416 20.8588C22.2777 20.7866 22.2897 20.7023 22.2897 20.6422V16.0453C22.2897 15.925 22.2055 15.8768 22.1212 15.9731Z" fill="#0B0B0B"/>
</svg>
